<svg width="20" height="20" viewBox="0 0 20 20" fill="none" xmlns="http://www.w3.org/2000/svg">
<path d="M19.1217 11.5896L18.2896 10.9047C17.7197 10.4355 17.7207 9.56352 18.2897 9.09527L19.1217 8.41035C19.7137 7.92289 19.8652 7.08703 19.4817 6.42277L17.8388 3.57723C17.4553 2.91301 16.6556 2.62629 15.9375 2.89527L14.9283 3.27336C14.2371 3.53227 13.4824 3.09559 13.3613 2.36863L13.1841 1.30559C13.058 0.549102 12.4099 0 11.6429 0H8.35717C7.59017 0 6.94197 0.549102 6.81592 1.30562L6.63873 2.36863C6.51736 3.09687 5.76166 3.53184 5.0717 3.2734L4.06252 2.89527C3.34443 2.62629 2.54474 2.91305 2.16119 3.57723L0.518337 6.42273C0.13486 7.08691 0.286266 7.92281 0.878415 8.41031L1.71041 9.09523C2.28041 9.56445 2.27927 10.4364 1.71041 10.9047L0.878376 11.5896C0.286266 12.0771 0.134821 12.913 0.518298 13.5772L2.16119 16.4227C2.5447 17.0869 3.34424 17.3737 4.06252 17.1047L5.07166 16.7266C5.76302 16.4676 6.51756 16.9046 6.63869 17.6313L6.81588 18.6943C6.94197 19.4509 7.59017 20 8.35713 20H11.6429C12.4098 20 13.058 19.4509 13.1841 18.6944L13.3612 17.6314C13.4826 16.9034 14.2382 16.4681 14.9283 16.7267L15.9375 17.1047C16.6558 17.3738 17.4553 17.087 17.8388 16.4228L19.4818 13.5772C19.8652 12.913 19.7137 12.0771 19.1217 11.5896ZM16.4857 15.6415L15.4765 15.2634C13.8633 14.6591 12.1027 15.6787 11.8201 17.3745L11.6429 18.4375H8.35717L8.17998 17.3745C7.89681 15.6754 6.13365 14.6603 4.52353 15.2634L3.51435 15.6415L1.8715 12.796L2.70349 12.1111C4.03353 11.0161 4.03076 8.9816 2.70349 7.88895L1.8715 7.20402L3.51439 4.35848L4.52353 4.73656C6.13681 5.34086 7.89736 4.32133 8.17998 2.62551L8.35713 1.5625H11.6429L11.82 2.62551C12.1032 4.3248 13.8665 5.33961 15.4765 4.73656L16.4856 4.35848L18.1289 7.20363C18.1289 7.20363 18.1288 7.20375 18.1285 7.20398L17.2965 7.88891C15.9665 8.98375 15.9692 11.0183 17.2965 12.111L18.1285 12.7959L16.4857 15.6415ZM10 6.14582C7.87482 6.14582 6.14584 7.8748 6.14584 10C6.14584 12.1252 7.87482 13.8542 10 13.8542C12.1252 13.8542 13.8542 12.1252 13.8542 10C13.8542 7.8748 12.1252 6.14582 10 6.14582ZM10 12.2917C8.73638 12.2917 7.70834 11.2636 7.70834 10C7.70834 8.73637 8.73638 7.70832 10 7.70832C11.2636 7.70832 12.2917 8.73637 12.2917 10C12.2917 11.2636 11.2636 12.2917 10 12.2917Z" fill="white"/>
</svg>
