<svg width="45" height="14" viewBox="0 0 45 14" fill="none" xmlns="http://www.w3.org/2000/svg">
<g clip-path="url(#clip0_1_58)">
<path d="M19.5 13.798H15.8546L18.1347 0.245667H21.7798L19.5 13.798Z" fill="white"/>
<path d="M32.7146 0.576978C31.9955 0.302765 30.8551 0 29.445 0C25.8451 0 23.3101 1.84533 23.2946 4.48361C23.2647 6.43012 25.1096 7.51126 26.4894 8.16028C27.8997 8.82349 28.3791 9.25637 28.3791 9.84753C28.3648 10.7554 27.2395 11.1739 26.19 11.1739C24.7346 11.1739 23.9548 10.9582 22.7697 10.4531L22.2897 10.2365L21.7796 13.2787C22.6346 13.6532 24.2097 13.9854 25.8451 14C29.6701 14 32.1602 12.1832 32.1897 9.37173C32.2043 7.82897 31.2301 6.64684 29.1298 5.68087C27.8549 5.06078 27.0741 4.64265 27.0741 4.00819C27.089 3.4314 27.7345 2.84063 29.1737 2.84063C30.3588 2.81169 31.2295 3.08552 31.8891 3.35954L32.2188 3.50345L32.7146 0.576978Z" fill="white"/>
<path d="M37.5595 8.99691C37.8597 8.21835 39.0148 5.20507 39.0148 5.20507C38.9997 5.234 39.3145 4.41213 39.4945 3.90759L39.7492 5.07534C39.7492 5.07534 40.4395 8.31933 40.5894 8.99691C40.0197 8.99691 38.2795 8.99691 37.5595 8.99691ZM42.0591 0.245667H39.2395C38.37 0.245667 37.7094 0.490561 37.3342 1.37011L31.9196 13.7978H35.7445C35.7445 13.7978 36.3742 12.1252 36.5096 11.7649C36.9292 11.7649 40.65 11.7649 41.1898 11.7649C41.2945 12.2407 41.6248 13.7978 41.6248 13.7978H45L42.0591 0.245667Z" fill="white"/>
<path d="M12.8099 0.245667L9.23997 9.48709L8.84986 7.61282C8.18985 5.45016 6.11991 3.10047 3.80997 1.93215L7.07993 13.7837H10.9347L16.6645 0.245667H12.8099Z" fill="white"/>
<path d="M5.92496 0.245667H0.0600008L0 0.519496C4.57503 1.64413 7.60499 4.35503 8.84986 7.6134L7.57489 1.38487C7.36498 0.519305 6.71992 0.274218 5.92496 0.245667Z" fill="white"/>
</g>
<defs>
<clipPath id="clip0_1_58">
<rect width="45" height="14" fill="white"/>
</clipPath>
</defs>
</svg>
